<?xml version="1.0" encoding="utf-8"?>
<!-- Generator: Adobe Illustrator 24.2.2, SVG Export Plug-In . SVG Version: 6.00 Build 0)  -->
<svg version="1.1" id="Layer_1" xmlns="http://www.w3.org/2000/svg" xmlns:xlink="http://www.w3.org/1999/xlink" x="0px" y="0px"
	 viewBox="0 0 512 512" style="enable-background:new 0 0 512 512;" xml:space="preserve">
<style type="text/css">
	.st0{fill:#FFB1A5;}
	.st1{fill:#111D36;}
	.st2{fill:#F9A9A3;}
	.st3{fill:#FFFFFF;}
	.st4{fill:#9B2121;}
	.st5{fill:#0F100D;}
	.st6{fill:#302C2B;}
	.st7{fill:#515151;}
	.st8{fill:#4A4A48;}
	.st9{fill:url(#SVGID_1_);}
	.st10{fill:url(#SVGID_2_);}
	.st11{fill:url(#SVGID_3_);}
	.st12{fill:url(#SVGID_4_);}
	.st13{fill:#D72323;}
	.st14{fill:url(#SVGID_5_);}
	.st15{fill:url(#SVGID_6_);}
	.st16{fill:url(#SVGID_7_);}
	.st17{fill:url(#SVGID_8_);}
	.st18{fill:url(#SVGID_9_);}
	.st19{fill:url(#SVGID_10_);}
	.st20{fill:url(#SVGID_11_);}
	.st21{fill:url(#SVGID_12_);}
</style>
<g id="head">
	<g>
		<path class="st0" d="M-348.4,352.3c-1.2-21.5-2.2-39.7-2.2-39.7s-16.5,11.5-31.5,14.3s-29.5-6-29.7-6.1s-17.4-10.1-17.4-10.1
			s-0.2,3.8-0.6,10c-0.9,15.5-2.7,46-4.2,69.1c11.2,15.8,28.1,28.3,53.6,30.8c0.9,0.1,1.8,0.2,2.7,0.3c6.1,0.4,11.4,0.3,16.1-0.2
			c6.9-0.6,12.4-2,16.7-4.1C-345.4,405.8-347.1,376.9-348.4,352.3z"/>
		<path class="st1" d="M-430.9,309.9c0,0,19.7,46.5,49.1,43.1c30.7-3.6,35.7-41.8,35.7-41.8L-430.9,309.9z"/>
		<path class="st2" d="M-267.5,176.2c-6.6,1.1-5.5,8.8-6.6,11.1l-4.4,7.7v-13.2l4.4-11.1c0,0-1.1-39.7-5.5-57.3
			c-4.4-17.7-26.5-51.8-59.6-59.6c-30.8-7.2-40-7.9-41.2-8l0,0h-0.1c-0.1,0-0.1,0-0.1,0l0,0c-1.2,0.1-10.5,0.9-41.2,8
			c-33.1,7.7-55.1,41.9-59.6,59.6s-5.5,57.3-5.5,57.3l4.4,11.1V195l-4.4-7.7c-1.1-2.2,0-9.9-6.6-11.1c-12.1-2.1-11,34.2-11,34.2
			l7.7,15.4c0,0,3.3,3.3,8.8,17.7c5.5,14.4,8.8,13.2,12.1,12.1c3.4-1.1,3.4,4.4,3.4,4.4s0,3.3,5.5,18.7s18.7,24.3,45.2,38.6
			c25.8,14,40.5,13.6,41.3,13.6c0.8,0.1,15.5,0.4,41.3-13.6c26.5-14.4,39.7-23.2,45.2-38.6s5.5-18.7,5.5-18.7s0-5.5,3.3-4.4
			c3.3,1.1,6.6,2.2,12.1-12.1c5.5-14.4,8.8-17.7,8.8-17.7l7.7-15.4C-256.5,210.4-255.4,174.2-267.5,176.2z"/>
	</g>
	<path class="st3" d="M-416.9,255.8h70.9c0,0-5.8,13.8-35.5,13.8C-406.4,269.6-416.9,255.8-416.9,255.8z"/>
	<path class="st4" d="M-361.8,250.5c-10.9-3.7-16.5-1.3-18.2-0.4c-1.6-0.9-7.2-3.3-18.2,0.4c-13.2,4.4-26.5,7.7-26.5,7.7h44.1h1.1
		h41.4h2.7C-335.4,258.3-348.6,255-361.8,250.5z"/>
	<path class="st4" d="M-359.5,267c-13.2,4.4-21,2.9-21,2.9s-7.7,1.6-21-2.9c-13.2-4.4-23.4-9.2-23.4-9.2s3.1,4.1,3.9,4.9
		c1.7,1.7-0.1,0.9,9.5,7.6c14.4,9.9,22,12.1,29.8,12.1c0.4,0,0.8,0,1.1,0c0.4,0,0.8,0,1.1,0c7.7,0,15.4-2.2,29.8-12.1
		c7.2-4.9,4.3-3.8,6.7-5.8c2.3-2.1,4.9-6.9,4.9-6.9S-346.3,262.6-359.5,267z"/>
	<g>
		<path d="M-385.4,244.6c0.2,0-0.1-0.1-0.5-0.3C-385.7,244.5-385.6,244.6-385.4,244.6z"/>
		<path d="M-397.5,236.9c0,0-9.9,2.2-12.1,1.1c-2.2-1.1-3.3,4.4-4.4,4.4s1.1-3.3,1.1-3.3s-2.2,2.2-3.3,3.3
			c-0.9,0.9-8.9,8.9-11.1,11.1c3.3-3.3,15.4-7.7,24.3-9.9c7.2-1.8,15.1,0.1,17.2,0.8c-0.6-0.6-1.4-1.9-1.9-3
			c1.3,1.1,3.5,2.2,3.5,2.2s-0.9-2.4-1.6-4.3c1.4,2.3,3.8,3.2,3.8,3.2C-377.7,234.7-397.5,236.9-397.5,236.9z"/>
		<path d="M-344.7,242.4c-1.1-1.1-3.3-3.3-3.3-3.3s2.2,3.3,1.1,3.3s-2.2-5.5-4.4-4.4s-12.1-1.1-12.1-1.1s-19.9-2.2-15.4,5.5
			c0,0,2.4-0.8,3.8-3.2c-0.7,1.8-1.6,4.2-1.6,4.2s2.2-1.1,3.5-2.2c-0.6,1-1.3,2.4-1.9,3c2-0.8,9.9-2.6,17.2-0.8
			c8.8,2.2,21,6.6,24.3,9.9C-330.4,256.7-343.7,243.5-344.7,242.4z"/>
		<path d="M-375.6,244.6c0.2,0,0.3-0.1,0.5-0.3C-375.6,244.5-375.8,244.6-375.6,244.6z"/>
	</g>
	<g>
		<g>
			<path class="st5" d="M-288.1,63.8c-7.5-6.7-25.2-18.5-44.3-25.5c-13-4.8-26.8-7.2-39.1-8.1c-0.9-0.2-1.8-0.3-2.8-0.3
				c-2.3-0.1-4.7-0.2-7.3-0.1c-2.5,0-5,0-7.3,0.1c-1,0.1-1.9,0.2-2.9,0.3c-12.2,0.9-26.1,3.3-39.1,8.1c-19.1,7-36.7,18.8-44.3,25.5
				c-19.6,17.8-21.7,59.4-18.4,80.9c3.1,19.9,6.1,46.7,6.5,50.6l4.7-0.3c3.6-4.7-0.1-7.8,0-13.2c0.7-48.1,8.5-42.7,6.5-58.5
				c-2.2-17.6,16.7-45.3,16.7-45.3s32.7-10.2,48.5-7c21.3,4.4,29.2,5.9,29.2,5.9s0,0,0.1-0.1c0,0.1,0.1,0.1,0.1,0.1
				s7.9-1.5,29.2-5.9c15.8-3.3,48.5,6.9,48.5,6.9s18.9,27.7,16.7,45.3c-2,15.7,18.6,23.2,7.6,60.7c-4.5,15.2,3.6,10.3,3.3,17.7
				l0.3-6.3c0.4-3.8,3.5-30.7,6.5-50.6C-266.1,123.2-268.1,81.6-288.1,63.8z"/>
		</g>
		<path class="st6" d="M-437.3,72.5c-3.3,2.2-10.9,1.6-22,5.5c-14.5,5-31.3,9.5-26.5-14.4c3.9-25.3,56.7-56.4,62.1-59.5
			c5.4-3.1,27.4-5.4,31.7-3.3c9.9,5.5,12.1,6.6,12.1,6.6s7.9-0.5,12.1,0c8.5-2.7,18.5-6.9,19.9-2.2c1.4,4.7,12.5,2.9,14.5,4
			c1.9,1.2,10.7,5.2,11.1,7.9c0.3,2.6,11.1,5.6,14.1,10.2s10.5,15.6,7.5,19.6c-3.6,4.7,22.8,32.3,22.4,31.1
			c-4.9-13.1-97.9-7.6-105.9-6C-408.4,77-437.3,72.5-437.3,72.5z"/>
		<path class="st5" d="M-330.1,29.2c0.1-0.3,0.1-0.5,0.1-0.7C-330,27.9-330.1,28.2-330.1,29.2z"/>
		<path class="st5" d="M-292.7,49.3c-2.3-0.9-8.5-8.5-10.2-12.2l0,0c0.4,6.3-7.2,11.5-6.5,6.1s-2.3-12.7-2.3-12.7
			c-3.6,21.9-23.2,18.7-20.9,12.7c1.7-4.4,2.3-11.5,2.5-14.1c-0.9,3.7-7.5,17.2-13.6,20.9c-6.5,4.1-14.4,7.9-8.5-5.6
			c5.9-13.4,10.1-26.6,10.1-26.6c-6.2,15.8-18.3,35.3-28.7,41.2s-4.9-7.3-4.9-7.3c-8.5,4.1-5.6,13.1-21.9,17.8
			c-16.3,4.7,0-16.8,0-16.8c-13.7,14-33.3,10.5-33.3,10.5c-1.5-26.5,30.4-47.1,30.4-47.1c-8.3,4.9-21.6,11-36.3,30.3
			c-14.7,19.3-33.4-3.9-33.4-3.9l0,0c3,29.9,35.8,24.6,35.8,24.6s25.5,6.4,50.1,5c8.9-0.5,110,12.9,106,3.8
			C-278.5,75.5-262.9,61.5-292.7,49.3z"/>
		<path class="st7" d="M-412,41.6c0,0,23.3-28.2,38.9-34.8c-3.1,4.6-6.2,8.8-7.5,12.9c3.5-2,17.5-7.5,25.5-17.2
			c-4.1,11.5-14.4,20.2-15.3,26.1c1.8-3.4,13.3-10.2,18.3-15.6c-6.9,12.8-34.3,36.5-34.3,36.5s11-9.1,10.8-17
			c-4,5-10.5,11.7-23.5,17c12.9-13,11.5-21.6,11.5-21.6S-401.5,37-412,41.6z"/>
		<path class="st7" d="M-337.8,15.2c0,0-1.5,10.2-3.2,14.9s2.1,0.4,3.2-1.3c1.1-1.7,1.5,0.6,1.1,1.2c-0.4,0.7,1.1,0.8,1.9-1.7
			c0.9-2.4,2.2,0,2.2,0s2.3-1.2,3-3.2c0.6-2,1.8,5.6,1.3,7.1c-0.5,1.6,2.6-3,2.6-3s1.1,4.9,0,9.8c-1.1,4.9,6.5,3.1,7.3-6.6
			c0.9-9.7-1.3-11.2-2.6-11.3c-1.2-0.1-1.7,3.4-1.7,3.4s-1-5.8-3.6-6.8c-2.6-1-4.9,1.1-4.8,1.7C-330.8,20-337.8,6.5-337.8,15.2z"/>
		<path class="st7" d="M-459.9,27.5c0,0,2.8-11.3,22.2-16.7c19.5-5.3,20.5-4.3,29.5-8.8s-11.1,9.4-16.1,10.4s10.8-1.3,18.4-2.6
			s-13.4,7.5-24.7,17.8c-11.7,10.6-9.8,13.6-14.2,18.8c-1.4-6.9-0.6-14,0.6-16.4c1.1-2.5-5-0.2-9.3,5.1c-4.3,5.2,1.3-5.6,1.3-7.3
			C-452.2,25.9-460.1,31.3-459.9,27.5z"/>
		<path class="st8" d="M-444.2,29.9c1.1-2.5-5-0.2-9.3,5.1c-4.3,5.2-1-4.5,1.3-7.3"/>
	</g>
	<g>
		<path d="M-389.5,288.5c0.2-0.1,0.3-0.1,0.5-0.2C-389.5,285.7-389,287.8-389.5,288.5z"/>
		<path d="M-389.8,288.7c0.2,0,0.3-0.1,0.3-0.2C-389.9,288.6-390.1,288.7-389.8,288.7z"/>
		<path d="M-384.3,287.6c0.5,0.5,1.2,1.1,1.9,1.7C-383.4,288.2-384.9,287-384.3,287.6z"/>
		<path d="M-371.5,288.5c0.1,0.1,0.2,0.2,0.3,0.2C-370.9,288.7-371.1,288.6-371.5,288.5z"/>
		<path d="M-372,288.4c0.2,0.1,0.4,0.1,0.5,0.2C-372,287.8-371.5,285.7-372,288.4z"/>
		<path d="M-378.7,289.3c0.7-0.6,1.5-1.2,2-1.7C-376.1,287-377.6,288.2-378.7,289.3z"/>
		<path d="M-378.9,290.9c-1.6,0.6-0.9-0.5,0.3-1.6c-0.9,0.7-1.7,1.3-1.8,1.4c-0.1-0.1-0.9-0.7-1.8-1.4c1.1,1.1,1.9,2.2,0.3,1.6
			c-3.3-1.1-3.3-3.3-3.3-3.3s-2.2,0.5-3.6,0.8c0.1,0.4,0.2,0.8,0.3,1.4c1.1,5.5,1.1,5.5,1.1,5.5s-1.1-5.5,0-4.4s1.1,6.6,1.1,6.6
			l1.1-2.2l3.3,4.4v3.3l1.1-2.2l0.4,1.6v0.6l0.1-0.3l0.1,0.3v-0.6l0.4-1.6l1.1,2.2v-3.3l3.3-4.4l1.1,2.2c0,0,0-5.5,1.1-6.6
			c1.1-1.1,0,4.4,0,4.4s0,0,1.1-5.5c0.1-0.6,0.2-1.1,0.3-1.4c-1.3-0.3-3.6-0.8-3.6-0.8S-375.6,289.8-378.9,290.9z"/>
	</g>
	<g>
		<path d="M-385.4,233.6c0,0-3.3-8.8-12.1-7.7s-8.8,0-8.8,0S-393.1,225.8-385.4,233.6z"/>
		<path d="M-375.6,233.6c0,0,3.3-8.7,12.1-7.6c8.8,1.1,8.8,0,8.8,0S-367.9,225.9-375.6,233.6z"/>
	</g>
	<path d="M-277.9,157.5c0-2.2-3.3-9.9-3.3-9.9h-3.3c0,0,0-1.1-15.4-8.8s-62.9,8.8-62.9,8.8c-3.3,1.1-6.6,12.1-6.6,12.1l-13.6,0.6
		v0.2l-9.5,0.2c0,0-3.3-11.1-6.6-12.1c0,0-47.4-16.5-62.9-8.8c-15.5,7.6-15.5,8.6-15.5,8.6h-3.3c0,0-3.3,7.7-3.3,9.9
		s-4.1,21.7-4.1,21.7l4,12c0,0,2.4-30.4,3.5-31.5c1.1-1.1,4.4-2.2,5.5,3.3c1.1,5.5,3.3,8.8,3.3,8.8s7.7,32,18.7,37.5
		c11.1,5.5,14.4,5.5,19.9,5.5s15.4-4.4,21-8.8c5.5-4.4,9.9-9.9,13.2-16.5c3.3-6.6,6.6-8.8,7.7-15.4c1.1-6.6,0-9.9,0-9.9l8-0.8v0.1
		l9.6-0.6c0,0,2.1,3.7,3.3,10.3c1.1,6.6,4.4,8.8,7.7,15.4c3.3,6.6,7.7,12.1,13.2,16.5s15.4,8.8,21,8.8c5.5,0,8.8,0,19.9-5.5
		c11.1-5.5,18.7-37.5,18.7-37.5s2.2-3.3,3.3-8.8s4.4-4.4,5.5-3.3c1.1,1.1,5.1,32.5,5.1,32.5l2.2-17.7
		C-273.9,174.6-277.9,159.7-277.9,157.5z M-400.3,187c-3.3,9.9-12.1,16.5-19.9,22c-7.7,5.5-15.4,3.3-26.5,0
		c-11.1-3.3-17.7-19.9-19.9-23.2s-4.4-21-3.3-27.6c1.1-6.6,5.5-11.1,36.4-14.4c30.9-3.3,37.5,23.2,37.5,23.2S-397,177.1-400.3,187z
		 M-295.5,185.1c-2.2,3.3-8.8,19.9-19.9,23.2s-18.7,5.5-26.5,0c-7.7-5.5-16.5-12.1-19.9-22c-3.3-9.9-4.4-19.9-4.4-19.9
		s6.6-26.5,37.5-23.2s35.3,7.7,36.4,14.4C-291.1,164.1-293.3,181.8-295.5,185.1z"/>
	<g>
		<g>
			<g>
				<path class="st3" d="M-402.5,165.6c-0.3-0.3-0.5-0.5-0.9-0.5c-4.2-5.9-8.8-8.4-15.5-8.4c-5.6,0-16.4,0.5-20.5,5.6
					c0,0,6.5,5.1,16.4,5.1s17.3-1.3,17.3-1.3l4.8,1L-402.5,165.6z"/>
			</g>
			<g id="XMLID_17_">
				
					<linearGradient id="SVGID_1_" gradientUnits="userSpaceOnUse" x1="-422.7493" y1="876.4163" x2="-422.7493" y2="870.4869" gradientTransform="matrix(1 0 0 1 0 -709.7775)">
					<stop  offset="0" style="stop-color:#AF5C37"/>
					<stop  offset="1" style="stop-color:#843F29"/>
				</linearGradient>
				<path class="st9" d="M-414.7,161.9c0.1-1.9-0.5-3.6-1.6-5c-0.8-0.1-1.7-0.2-2.6-0.2c-2.7,0-6.8,0.1-10.7,0.9
					c-0.7,1.1-1.1,2.4-1.2,3.8c-0.1,2,0.6,3.9,1.8,5.3c1.8,0.4,3.8,0.6,6,0.6c2.1,0,4.1-0.1,6-0.2
					C-415.7,165.8-414.8,164-414.7,161.9z"/>
				
					<linearGradient id="SVGID_2_" gradientUnits="userSpaceOnUse" x1="-422.7477" y1="876.4163" x2="-422.7477" y2="870.4869" gradientTransform="matrix(1 0 0 1 0 -709.7775)">
					<stop  offset="0" style="stop-color:#C1653D"/>
					<stop  offset="1" style="stop-color:#9F4D32"/>
				</linearGradient>
				<path class="st10" d="M-416,161.8c0.1-1.7-0.5-3.3-1.5-4.5c-0.4-0.2-0.9-0.4-1.3-0.6c-2.4,0-5.8,0.1-9.1,0.6
					c-1,1.1-1.6,2.5-1.6,4.1c-0.1,2.3,1,4.4,2.7,5.7c1.2,0.2,2.5,0.3,3.8,0.3c1.4,0,2.7,0,4-0.1C-417.3,166.1-416.1,164.1-416,161.8
					z"/>
				<path id="XMLID_20_" d="M-418.1,160.5c0.7,3.6-2.6,6.7-6.2,5.7c-1.6-0.5-3-1.9-3.3-3.6c-0.7-3.6,2.5-6.6,6.1-5.6
					C-419.7,157.4-418.4,158.9-418.1,160.5z"/>
				<path id="XMLID_19_" class="st3" d="M-420.2,159.1c-0.1,1-1.1,1-2.5,1c-1.4-0.1-2.4-0.1-2.4-1.1c0.1-1,1.2-1.8,2.5-1.8
					C-421.3,157.2-420.2,158.1-420.2,159.1z"/>
				<path id="XMLID_18_" class="st3" d="M-422.3,164.9c0,0.3-0.3,0.6-0.6,0.6c-0.3,0-0.6-0.3-0.6-0.6s0.3-0.6,0.6-0.6
					C-422.6,164.3-422.3,164.6-422.3,164.9z"/>
			</g>
			<path d="M-439.3,162.3c4.6-4.1,11.9-4.4,17.6-4.7c2.9-0.2,5.8-0.7,8.6,0c2.9,0.7,8.6,4,9.1,7.6c0.1,0.3,0.4,0.6,0.7,0.6
				c0.3,0,0.6,0,0.9,0.1c0.2,0.1,0.4-0.2,0.4-0.4c-0.5-1.3-1.6-1.2-2.3-2.3c-1.2-1.6-2.7-2.9-4.3-4c-3-2.1-7.1-3-10.6-3.3
				C-425.7,155.4-434.8,156.2-439.3,162.3C-439.6,162.3-439.5,162.4-439.3,162.3L-439.3,162.3z"/>
		</g>
		<g>
			<g>
				<path class="st3" d="M-352.4,165.3c0.2-0.3,0.5-0.5,0.9-0.5c3.9-5.9,8.2-8.4,14.6-8.4c5.2,0,15.4,0.5,19.4,5.6
					c0,0-6.1,5.1-15.5,5.1s-16.3-1.3-16.3-1.3l-4.6,1L-352.4,165.3z"/>
			</g>
			<g id="XMLID_13_">
				
					<linearGradient id="SVGID_3_" gradientUnits="userSpaceOnUse" x1="-335.7493" y1="876.4178" x2="-335.7493" y2="870.4864" gradientTransform="matrix(1 0 0 1 0 -709.7775)">
					<stop  offset="0" style="stop-color:#AF5C37"/>
					<stop  offset="1" style="stop-color:#843F29"/>
				</linearGradient>
				<path class="st11" d="M-329.9,166.9c1.1-1.3,1.9-3.1,1.9-5c0.1-1.9-0.5-3.6-1.5-5c-2.8-0.4-5.5-0.5-7.5-0.5
					c-1.9,0-3.6,0.3-5.1,0.7c-0.9,1.2-1.4,2.7-1.4,4.3c-0.1,2,0.6,3.9,1.7,5.3c2.5,0.2,5.4,0.4,8.8,0.4
					C-331.9,167.1-330.9,167-329.9,166.9z"/>
				
					<linearGradient id="SVGID_4_" gradientUnits="userSpaceOnUse" x1="-335.75" y1="876.4178" x2="-335.75" y2="870.4864" gradientTransform="matrix(1 0 0 1 0 -709.7775)">
					<stop  offset="0" style="stop-color:#C1653D"/>
					<stop  offset="1" style="stop-color:#9F4D32"/>
				</linearGradient>
				<path class="st12" d="M-331.1,166.4c1.2-1.2,2-2.9,2-4.7c0.1-2-0.8-3.9-2.1-5.2c-2.1-0.2-4.2-0.3-5.8-0.3
					c-1.1,0-2.2,0.1-3.2,0.3c-1.3,1.2-2.1,2.9-2.2,4.8c-0.1,2.1,0.8,4.1,2.3,5.4c2.2,0.2,4.7,0.3,7.4,0.3
					C-332.2,166.9-331.5,166.7-331.1,166.4z"/>
				<path id="XMLID_16_" d="M-331,161.8c-0.1,2.6-2.3,4.7-4.8,4.7c-2.6-0.1-4.6-2.3-4.5-4.9c0.1-2.6,2.2-4.7,4.8-4.6
					C-332.9,156.9-330.9,159.1-331,161.8z"/>
				<path id="XMLID_15_" class="st3" d="M-333.2,159.1c-0.1,1-1.1,1-2.4,1c-1.3-0.1-2.3-0.1-2.3-1.1c0.1-1,1.1-1.8,2.4-1.8
					S-333.2,158.1-333.2,159.1z"/>
				<path id="XMLID_14_" class="st3" d="M-335.3,164.9c0,0.3-0.3,0.6-0.6,0.6c-0.3,0-0.6-0.3-0.6-0.6s0.3-0.6,0.6-0.6
					C-335.5,164.3-335.3,164.6-335.3,164.9z"/>
			</g>
			<path d="M-317.6,162c-4.3-4.1-11.3-4.4-16.5-4.7c-2.7-0.2-5.4-0.7-8.1,0s-8,4-8.6,7.6c-0.1,0.3-0.4,0.6-0.7,0.6
				c-0.3,0-0.5,0-0.8,0.1c-0.2,0.1-0.4-0.2-0.3-0.4c0.4-1.3,1.5-1.2,2.2-2.3c1.1-1.6,2.6-2.9,4.1-4c2.9-2.1,6.7-3,10-3.3
				c6.1-0.5,14.7,0.3,18.8,6.3C-317.4,162-317.5,162.1-317.6,162L-317.6,162z"/>
		</g>
	</g>
	<path class="st13" d="M-275.3,83.1l-212-2c0,0-11,33-8,45c2.9,11.6,121-33,121-33s67,27,106,26C-268.3,119.1-269.3,88.1-275.3,83.1
		z"/>
</g>
<path id="bright" class="st13" d="M-370.5,90.6l137.1-69.4c2.6-1.3,1.1-5.2-1.7-4.4C-273.4,26.7-355.8,52.1-370.5,90.6z"/>
<path id="bleft" class="st13" d="M-367.2,83.9l-114,90c-13.6,5.4-10.1-4.6-7.1-7.7C-445.6,121.4-374.2,51.2-367.2,83.9z"/>
<g>
	<g id="head_1_">
		<g>
			<path class="st0" d="M-107.8,163.5c-0.5-8.9-0.9-16.4-0.9-16.4s-6.8,4.8-13,5.9s-12.2-2.5-12.3-2.5c-0.1,0-7.2-4.2-7.2-4.2
				s-0.1,1.6-0.2,4.1c-0.4,6.4-1.1,19-1.7,28.6c4.6,6.5,11.6,11.7,22.2,12.7c0.4,0,0.7,0.1,1.1,0.1c2.5,0.2,4.7,0.1,6.7-0.1
				c2.9-0.2,5.1-0.8,6.9-1.7C-106.5,185.7-107.2,173.7-107.8,163.5z"/>
			<path class="st1" d="M-141.9,146c0,0,8.1,19.2,20.3,17.8c12.7-1.5,14.8-17.3,14.8-17.3L-141.9,146z"/>
			<path class="st2" d="M-74.3,90.8c-2.7,0.5-2.3,3.6-2.7,4.6l-1.8,3.2v-5.5l1.8-4.6c0,0-0.5-16.4-2.3-23.7
				c-1.8-7.3-11-21.4-24.6-24.6c-12.7-3-16.5-3.3-17-3.3l0,0h0c0,0,0,0,0,0l0,0c-0.5,0-4.3,0.4-17,3.3
				c-13.7,3.2-22.8,17.3-24.6,24.6c-1.9,7.3-2.3,23.7-2.3,23.7l1.8,4.6v5.5l-1.8-3.2c-0.5-0.9,0-4.1-2.7-4.6
				c-5-0.9-4.5,14.1-4.5,14.1l3.2,6.4c0,0,1.4,1.4,3.6,7.3c2.3,6,3.6,5.5,5,5c1.4-0.5,1.4,1.8,1.4,1.8s0,1.4,2.3,7.7
				c2.3,6.4,7.7,10,18.7,16c10.7,5.8,16.7,5.6,17.1,5.6c0.3,0,6.4,0.2,17.1-5.6c11-6,16.4-9.6,18.7-16c2.3-6.4,2.3-7.7,2.3-7.7
				s0-2.3,1.4-1.8c1.4,0.5,2.7,0.9,5-5c2.3-6,3.6-7.3,3.6-7.3l3.2-6.4C-69.8,104.9-69.3,89.9-74.3,90.8z"/>
		</g>
		<path class="st3" d="M-136.1,123.7h29.3c0,0-2.4,5.7-14.7,5.7C-131.7,129.4-136.1,123.7-136.1,123.7z"/>
		<path class="st4" d="M-113.3,121.5c-4.5-1.5-6.8-0.5-7.5-0.2c-0.7-0.4-3-1.4-7.5,0.2c-5.5,1.8-11,3.2-11,3.2h18.2h0.5h17.1h1.1
			C-102.4,124.7-107.9,123.3-113.3,121.5z"/>
		<path class="st4" d="M-112.4,128.3c-5.5,1.8-8.7,1.2-8.7,1.2s-3.2,0.7-8.7-1.2c-5.5-1.8-9.7-3.8-9.7-3.8s1.3,1.7,1.6,2
			c0.7,0.7,0,0.4,3.9,3.1c6,4.1,9.1,5,12.3,5c0.2,0,0.3,0,0.5,0c0.2,0,0.3,0,0.5,0c3.2,0,6.4-0.9,12.3-5c3-2,1.8-1.6,2.8-2.4
			c1-0.9,2-2.9,2-2.9S-106.9,126.5-112.4,128.3z"/>
		<g>
			<path d="M-123.1,119c0.1,0,0,0-0.2-0.1C-123.2,119-123.2,119-123.1,119z"/>
			<path d="M-128.1,115.9c0,0-4.1,0.9-5,0.5s-1.4,1.8-1.8,1.8s0.5-1.4,0.5-1.4s-0.9,0.9-1.4,1.4c-0.4,0.4-3.7,3.7-4.6,4.6
				c1.4-1.4,6.4-3.2,10-4.1c3-0.7,6.2,0,7.1,0.3c-0.2-0.2-0.6-0.8-0.8-1.2c0.5,0.5,1.4,0.9,1.4,0.9s-0.4-1-0.7-1.8
				c0.6,1,1.6,1.3,1.6,1.3C-119.9,115-128.1,115.9-128.1,115.9z"/>
			<path d="M-106.3,118.1c-0.5-0.5-1.4-1.4-1.4-1.4s0.9,1.4,0.5,1.4c-0.5,0-0.9-2.3-1.8-1.8c-0.9,0.5-5-0.5-5-0.5s-8.2-0.9-6.4,2.3
				c0,0,1-0.3,1.6-1.3c-0.3,0.7-0.7,1.7-0.7,1.7s0.9-0.5,1.4-0.9c-0.2,0.4-0.5,1-0.8,1.2c0.8-0.3,4.1-1.1,7.1-0.3
				c3.6,0.9,8.7,2.7,10,4.1C-100.3,124-105.8,118.6-106.3,118.1z"/>
			<path d="M-119,119c0.1,0,0.1,0,0.2-0.1C-119,119-119.1,119-119,119z"/>
		</g>
		<g>
			<g>
				<path class="st5" d="M-82.9,44.3c-3.1-2.8-10.4-7.6-18.3-10.5c-5.4-2-11.1-3-16.2-3.3c-0.4-0.1-0.7-0.1-1.2-0.1
					c-1,0-1.9-0.1-3,0c-1,0-2.1,0-3,0c-0.4,0-0.8,0.1-1.2,0.1c-5,0.4-10.8,1.4-16.2,3.3c-7.9,2.9-15.2,7.8-18.3,10.5
					c-8.1,7.4-9,24.5-7.6,33.4c1.3,8.2,2.5,19.3,2.7,20.9l1.9-0.1c1.5-1.9,0-3.2,0-5.5c0.3-19.9,3.5-17.6,2.7-24.2
					c-0.9-7.3,6.9-18.7,6.9-18.7s13.5-4.2,20-2.9c8.8,1.8,12.1,2.4,12.1,2.4s0,0,0,0c0,0,0,0,0,0s3.3-0.6,12.1-2.4
					c6.5-1.4,20,2.9,20,2.9s7.8,11.4,6.9,18.7c-0.8,6.5,7.7,9.6,3.1,25.1c-1.9,6.3,1.5,4.3,1.4,7.3l0.1-2.6
					c0.2-1.6,1.4-12.7,2.7-20.9C-73.8,68.9-74.6,51.7-82.9,44.3z"/>
			</g>
			<path class="st6" d="M-144.5,47.9c-1.4,0.9-4.5,0.7-9.1,2.3c-6,2.1-12.9,3.9-11-6c1.6-10.5,23.4-23.3,25.7-24.6
				s11.3-2.2,13.1-1.4c4.1,2.3,5,2.7,5,2.7s3.3-0.2,5,0c3.5-1.1,7.6-2.9,8.2-0.9s5.2,1.2,6,1.7c0.8,0.5,4.4,2.1,4.6,3.3
				c0.1,1.1,4.6,2.3,5.8,4.2c1.2,1.9,4.3,6.4,3.1,8.1c-1.5,1.9,9.4,13.3,9.3,12.9c-2-5.4-40.5-3.1-43.8-2.5
				C-132.6,49.8-144.5,47.9-144.5,47.9z"/>
			<path class="st5" d="M-100.2,30c0-0.1,0-0.2,0-0.3C-100.2,29.5-100.2,29.6-100.2,30z"/>
			<path class="st5" d="M-84.8,38.3c-1-0.4-3.5-3.5-4.2-5l0,0c0.2,2.6-3,4.8-2.7,2.5c0.3-2.2-1-5.2-1-5.2c-1.5,9.1-9.6,7.7-8.6,5.2
				c0.7-1.8,1-4.8,1-5.8c-0.4,1.5-3.1,7.1-5.6,8.6c-2.7,1.7-6,3.3-3.5-2.3c2.4-5.5,4.2-11,4.2-11c-2.6,6.5-7.6,14.6-11.9,17
				c-4.3,2.4-2-3-2-3c-3.5,1.7-2.3,5.4-9.1,7.4c-6.7,1.9,0-6.9,0-6.9c-5.7,5.8-13.8,4.3-13.8,4.3c-0.6-11,12.6-19.5,12.6-19.5
				c-3.4,2-8.9,4.5-15,12.5s-13.8-1.6-13.8-1.6l0,0c1.2,12.4,14.8,10.2,14.8,10.2s10.5,2.6,20.7,2.1c3.7-0.2,45.5,5.3,43.8,1.6
				C-78.9,49.2-72.4,43.4-84.8,38.3z"/>
			<path class="st7" d="M-134.1,35.2c0,0,9.6-11.7,16.1-14.4c-1.3,1.9-2.6,3.6-3.1,5.3c1.4-0.8,7.2-3.1,10.5-7.1
				c-1.7,4.8-6,8.3-6.3,10.8c0.7-1.4,5.5-4.2,7.6-6.4c-2.9,5.3-14.2,15.1-14.2,15.1s4.5-3.8,4.5-7c-1.7,2.1-4.3,4.8-9.7,7
				c5.3-5.4,4.8-8.9,4.8-8.9S-129.7,33.3-134.1,35.2z"/>
			<path class="st7" d="M-103.4,24.2c0,0-0.6,4.2-1.3,6.2c-0.7,1.9,0.9,0.2,1.3-0.5c0.5-0.7,0.6,0.2,0.5,0.5
				c-0.2,0.3,0.5,0.3,0.8-0.7c0.4-1,0.9,0,0.9,0s1-0.5,1.2-1.3c0.2-0.8,0.7,2.3,0.5,2.9c-0.2,0.7,1.1-1.2,1.1-1.2s0.5,2,0,4
				c-0.5,2,2.7,1.3,3-2.7c0.4-4-0.5-4.6-1.1-4.7c-0.5,0-0.7,1.4-0.7,1.4s-0.4-2.4-1.5-2.8c-1.1-0.4-2,0.5-2,0.7
				C-100.5,26.2-103.4,20.6-103.4,24.2z"/>
			<path class="st7" d="M-153.9,29.3c0,0,1.2-4.7,9.2-6.9c8.1-2.2,8.5-1.8,12.2-3.6c3.7-1.9-4.6,3.9-6.7,4.3
				c-2.1,0.4,4.5-0.5,7.6-1.1c3.1-0.5-5.5,3.1-10.2,7.4c-4.8,4.4-4,5.6-5.9,7.8c-0.6-2.9-0.2-5.8,0.2-6.8c0.5-1-2.1-0.1-3.8,2.1
				c-1.8,2.1,0.5-2.3,0.5-3C-150.7,28.7-153.9,30.9-153.9,29.3z"/>
			<path class="st8" d="M-147.4,30.3c0.5-1-2.1-0.1-3.8,2.1c-1.8,2.1-0.4-1.9,0.5-3"/>
		</g>
		<g>
			<path d="M-124.8,137.2c0.1,0,0.1,0,0.2-0.1C-124.8,136-124.6,136.9-124.8,137.2z"/>
			<path d="M-124.9,137.3c0.1,0,0.1,0,0.1-0.1C-124.9,137.2-125,137.3-124.9,137.3z"/>
			<path d="M-122.6,136.8c0.2,0.2,0.5,0.5,0.8,0.7C-122.2,137.1-122.9,136.6-122.6,136.8z"/>
			<path d="M-117.3,137.2c0,0,0.1,0.1,0.1,0.1C-117.1,137.3-117.2,137.2-117.3,137.2z"/>
			<path d="M-117.5,137.1c0.1,0,0.2,0,0.2,0.1C-117.5,136.9-117.3,136-117.5,137.1z"/>
			<path d="M-120.3,137.5c0.3-0.2,0.6-0.5,0.8-0.7C-119.2,136.6-119.8,137.1-120.3,137.5z"/>
			<path d="M-120.4,138.2c-0.7,0.2-0.4-0.2,0.1-0.7c-0.4,0.3-0.7,0.5-0.7,0.6c0,0-0.4-0.3-0.7-0.6c0.5,0.5,0.8,0.9,0.1,0.7
				c-1.4-0.5-1.4-1.4-1.4-1.4s-0.9,0.2-1.5,0.3c0,0.2,0.1,0.3,0.1,0.6c0.5,2.3,0.5,2.3,0.5,2.3s-0.5-2.3,0-1.8
				c0.5,0.5,0.5,2.7,0.5,2.7l0.5-0.9l1.4,1.8v1.4l0.5-0.9l0.2,0.7v0.2l0-0.1l0,0.1v-0.2l0.2-0.7l0.5,0.9v-1.4l1.4-1.8l0.5,0.9
				c0,0,0-2.3,0.5-2.7c0.5-0.5,0,1.8,0,1.8s0,0,0.5-2.3c0-0.2,0.1-0.5,0.1-0.6c-0.5-0.1-1.5-0.3-1.5-0.3S-119,137.7-120.4,138.2z"/>
		</g>
		<g>
			<path d="M-123.1,114.5c0,0-1.4-3.6-5-3.2c-3.6,0.5-3.6,0-3.6,0S-126.3,111.3-123.1,114.5z"/>
			<path d="M-119,114.5c0,0,1.4-3.6,5-3.1c3.6,0.5,3.6,0,3.6,0S-115.8,111.3-119,114.5z"/>
		</g>
		<path d="M-78.6,83c0-0.9-1.4-4.1-1.4-4.1h-1.4c0,0,0-0.5-6.4-3.6c-6.4-3.2-26,3.6-26,3.6c-1.4,0.5-2.7,5-2.7,5l-5.6,0.2v0.1
			l-3.9,0.1c0,0-1.4-4.6-2.7-5c0,0-19.6-6.8-26-3.6c-6.4,3.1-6.4,3.6-6.4,3.6h-1.4c0,0-1.4,3.2-1.4,4.1c0,0.9-1.7,9-1.7,9l1.7,5
			c0,0,1-12.6,1.4-13c0.5-0.5,1.8-0.9,2.3,1.4c0.5,2.3,1.4,3.6,1.4,3.6s3.2,13.2,7.7,15.5c4.6,2.3,6,2.3,8.2,2.3s6.4-1.8,8.7-3.6
			c2.3-1.8,4.1-4.1,5.5-6.8c1.4-2.7,2.7-3.6,3.2-6.4c0.5-2.7,0-4.1,0-4.1l3.3-0.3v0l4-0.2c0,0,0.9,1.5,1.4,4.3
			c0.5,2.7,1.8,3.6,3.2,6.4c1.4,2.7,3.2,5,5.5,6.8c2.3,1.8,6.4,3.6,8.7,3.6c2.3,0,3.6,0,8.2-2.3c4.6-2.3,7.7-15.5,7.7-15.5
			s0.9-1.4,1.4-3.6s1.8-1.8,2.3-1.4c0.5,0.5,2.1,13.4,2.1,13.4L-77,90C-77,90.1-78.6,84-78.6,83z M-129.2,95.2
			c-1.4,4.1-5,6.8-8.2,9.1c-3.2,2.3-6.4,1.4-11,0c-4.6-1.4-7.3-8.2-8.2-9.6c-0.9-1.4-1.8-8.7-1.4-11.4c0.5-2.7,2.3-4.6,15-6
			c12.8-1.4,15.5,9.6,15.5,9.6S-127.9,91.1-129.2,95.2z M-85.9,94.5c-0.9,1.4-3.6,8.2-8.2,9.6c-4.6,1.4-7.7,2.3-11,0
			c-3.2-2.3-6.8-5-8.2-9.1c-1.4-4.1-1.8-8.2-1.8-8.2s2.7-11,15.5-9.6c12.8,1.4,14.6,3.2,15,6C-84.1,85.8-85,93.1-85.9,94.5z"/>
		<g>
			<g>
				<g>
					<path class="st3" d="M-130.1,86.4c-0.1-0.1-0.2-0.2-0.4-0.2c-1.7-2.4-3.6-3.5-6.4-3.5c-2.3,0-6.8,0.2-8.5,2.3
						c0,0,2.7,2.1,6.8,2.1s7.1-0.5,7.1-0.5l2,0.4L-130.1,86.4z"/>
				</g>
				<g id="XMLID_5_">
					
						<linearGradient id="SVGID_5_" gradientUnits="userSpaceOnUse" x1="-138.5051" y1="796.6015" x2="-138.5051" y2="794.1512" gradientTransform="matrix(1 0 0 1 0 -709.7775)">
						<stop  offset="0" style="stop-color:#AF5C37"/>
						<stop  offset="1" style="stop-color:#843F29"/>
					</linearGradient>
					<path class="st14" d="M-135.2,84.9c0-0.8-0.2-1.5-0.7-2.1c-0.3,0-0.7-0.1-1.1-0.1c-1.1,0-2.8,0-4.4,0.4c-0.3,0.5-0.5,1-0.5,1.6
						c0,0.8,0.2,1.6,0.7,2.2c0.7,0.2,1.6,0.2,2.5,0.2c0.9,0,1.7,0,2.5-0.1C-135.6,86.5-135.2,85.7-135.2,84.9z"/>
					
						<linearGradient id="SVGID_6_" gradientUnits="userSpaceOnUse" x1="-138.5045" y1="796.6015" x2="-138.5045" y2="794.1512" gradientTransform="matrix(1 0 0 1 0 -709.7775)">
						<stop  offset="0" style="stop-color:#C1653D"/>
						<stop  offset="1" style="stop-color:#9F4D32"/>
					</linearGradient>
					<path class="st15" d="M-135.7,84.8c0-0.7-0.2-1.4-0.6-1.9c-0.2-0.1-0.4-0.2-0.5-0.2c-1,0-2.4,0-3.8,0.2c-0.4,0.5-0.7,1-0.7,1.7
						c0,1,0.4,1.8,1.1,2.4c0.5,0.1,1,0.1,1.6,0.1c0.6,0,1.1,0,1.7,0C-136.3,86.6-135.8,85.8-135.7,84.8z"/>
					<path id="XMLID_8_" d="M-136.6,84.3c0.3,1.5-1.1,2.8-2.6,2.4c-0.7-0.2-1.2-0.8-1.4-1.5c-0.3-1.5,1-2.7,2.5-2.3
						C-137.2,83-136.7,83.6-136.6,84.3z"/>
					<path id="XMLID_7_" class="st3" d="M-137.5,83.7c0,0.4-0.5,0.4-1,0.4c-0.6,0-1,0-1-0.5c0-0.4,0.5-0.7,1-0.7
						S-137.5,83.3-137.5,83.7z"/>
					<path id="XMLID_6_" class="st3" d="M-138.3,86.1c0,0.1-0.1,0.2-0.2,0.2s-0.2-0.1-0.2-0.2s0.1-0.2,0.2-0.2
						C-138.4,85.9-138.3,86-138.3,86.1z"/>
				</g>
				<path d="M-145.3,85c1.9-1.7,4.9-1.8,7.3-1.9c1.2-0.1,2.4-0.3,3.6,0c1.2,0.3,3.6,1.7,3.8,3.1c0,0.1,0.2,0.2,0.3,0.2s0.2,0,0.4,0
					c0.1,0,0.2-0.1,0.2-0.2c-0.2-0.5-0.7-0.5-1-1c-0.5-0.7-1.1-1.2-1.8-1.7c-1.2-0.9-2.9-1.2-4.4-1.4
					C-139.7,82.2-143.5,82.5-145.3,85C-145.5,85-145.4,85.1-145.3,85L-145.3,85z"/>
			</g>
			<g>
				<g>
					<path class="st3" d="M-109.4,86.3c0.1-0.1,0.2-0.2,0.4-0.2c1.6-2.4,3.4-3.5,6-3.5c2.1,0,6.4,0.2,8,2.3c0,0-2.5,2.1-6.4,2.1
						s-6.7-0.5-6.7-0.5l-1.9,0.4L-109.4,86.3z"/>
				</g>
				<g id="XMLID_1_">
					
						<linearGradient id="SVGID_7_" gradientUnits="userSpaceOnUse" x1="-102.5522" y1="796.6021" x2="-102.5522" y2="794.1509" gradientTransform="matrix(1 0 0 1 0 -709.7775)">
						<stop  offset="0" style="stop-color:#AF5C37"/>
						<stop  offset="1" style="stop-color:#843F29"/>
					</linearGradient>
					<path class="st16" d="M-100.1,86.9c0.5-0.5,0.8-1.3,0.8-2.1c0-0.8-0.2-1.5-0.6-2.1c-1.2-0.2-2.3-0.2-3.1-0.2
						c-0.8,0-1.5,0.1-2.1,0.3c-0.4,0.5-0.6,1.1-0.6,1.8c0,0.8,0.2,1.6,0.7,2.2c1,0.1,2.2,0.2,3.6,0.2C-101,87-100.5,87-100.1,86.9z"
						/>
					
						<linearGradient id="SVGID_8_" gradientUnits="userSpaceOnUse" x1="-102.5525" y1="796.6021" x2="-102.5525" y2="794.1509" gradientTransform="matrix(1 0 0 1 0 -709.7775)">
						<stop  offset="0" style="stop-color:#C1653D"/>
						<stop  offset="1" style="stop-color:#9F4D32"/>
					</linearGradient>
					<path class="st17" d="M-100.6,86.7c0.5-0.5,0.8-1.2,0.8-1.9c0-0.8-0.3-1.6-0.9-2.1c-0.9-0.1-1.7-0.1-2.4-0.1
						c-0.5,0-0.9,0-1.3,0.1c-0.5,0.5-0.9,1.2-0.9,2c0,0.9,0.3,1.7,1,2.2c0.9,0.1,1.9,0.1,3.1,0.1C-101.1,86.9-100.8,86.8-100.6,86.7
						z"/>
					<path id="XMLID_4_" d="M-100.6,84.8c0,1.1-1,1.9-2,1.9c-1.1,0-1.9-1-1.9-2c0-1.1,0.9-1.9,2-1.9
						C-101.4,82.8-100.5,83.7-100.6,84.8z"/>
					<path id="XMLID_3_" class="st3" d="M-101.5,83.7c0,0.4-0.5,0.4-1,0.4c-0.5,0-1,0-1-0.5c0-0.4,0.5-0.7,1-0.7
						S-101.5,83.3-101.5,83.7z"/>
					<path id="XMLID_2_" class="st3" d="M-102.4,86.1c0,0.1-0.1,0.2-0.2,0.2s-0.2-0.1-0.2-0.2s0.1-0.2,0.2-0.2
						C-102.4,85.9-102.4,86-102.4,86.1z"/>
				</g>
				<path d="M-95.1,84.9c-1.8-1.7-4.7-1.8-6.8-1.9c-1.1-0.1-2.2-0.3-3.3,0c-1.1,0.3-3.3,1.7-3.6,3.1c0,0.1-0.2,0.2-0.3,0.2
					s-0.2,0-0.3,0c-0.1,0-0.2-0.1-0.1-0.2c0.2-0.5,0.6-0.5,0.9-1c0.5-0.7,1.1-1.2,1.7-1.7c1.2-0.9,2.8-1.2,4.1-1.4
					C-100.3,82.1-96.7,82.4-95.1,84.9C-95,84.9-95,84.9-95.1,84.9L-95.1,84.9z"/>
			</g>
		</g>
		<path class="st13" d="M-77.6,52.3l-87.6-0.8c0,0-4.5,13.6-3.3,18.6c1.2,4.8,50-13.6,50-13.6s27.7,11.2,43.8,10.7
			C-74.7,67.2-75.1,54.4-77.6,52.3z"/>
	</g>
	<path id="bright_1_" class="st13" d="M-116.9,55.4l56.7-28.7c1.1-0.5,0.5-2.1-0.7-1.8C-76.8,29-110.8,39.5-116.9,55.4z"/>
	<path id="bleft_1_" class="st13" d="M-115.5,52.6l-47.1,37.2c-5.6,2.2-4.2-1.9-2.9-3.2C-147.9,68.1-118.4,39.1-115.5,52.6z"/>
</g>
<g>
	<g id="head_2_">
		<g>
			<path class="st0" d="M277.9,436.2c-1.3-23.7-2.4-43.7-2.4-43.7s-18.2,12.7-34.7,15.7c-16.5,3.1-32.5-6.6-32.7-6.7
				s-19.2-11.1-19.2-11.1s-0.2,4.2-0.7,11c-1,17.1-3,50.6-4.6,76.1c12.3,17.4,30.9,31.2,59,33.9c1,0.1,2,0.2,3,0.3
				c6.7,0.4,12.6,0.3,17.7-0.2c7.6-0.7,13.7-2.2,18.4-4.5C281.2,495.1,279.3,463.3,277.9,436.2z"/>
			<path class="st1" d="M187.1,389.5c0,0,21.7,51.2,54.1,47.5c33.8-4,39.3-46,39.3-46L187.1,389.5z"/>
			<path class="st2" d="M367,242.3c-7.3,1.2-6.1,9.7-7.3,12.2l-4.8,8.5v-14.5l4.8-12.2c0,0-1.2-43.7-6.1-63.1
				c-4.8-19.5-29.2-57-65.6-65.6c-33.9-7.9-44-8.7-45.4-8.8l0,0h-0.1c-0.1,0-0.1,0-0.1,0l0,0c-1.3,0.1-11.6,1-45.4,8.8
				c-36.4,8.5-60.7,46.1-65.6,65.6c-5,19.5-6.1,63.1-6.1,63.1l4.8,12.2V263l-4.8-8.5c-1.2-2.4,0-10.9-7.3-12.2
				c-13.3-2.3-12.1,37.7-12.1,37.7l8.5,17c0,0,3.6,3.6,9.7,19.5s9.7,14.5,13.3,13.3c3.7-1.2,3.7,4.8,3.7,4.8s0,3.6,6.1,20.6
				s20.6,26.8,49.8,42.5c28.4,15.4,44.6,15,45.5,15c0.9,0.1,17.1,0.4,45.5-15c29.2-15.9,43.7-25.5,49.8-42.5s6.1-20.6,6.1-20.6
				s0-6.1,3.6-4.8c3.6,1.2,7.3,2.4,13.3-13.3c6.1-15.9,9.7-19.5,9.7-19.5l8.5-17C379.1,279.9,380.3,240.1,367,242.3z"/>
		</g>
		<path class="st3" d="M202.5,329.9h78.1c0,0-6.4,15.2-39.1,15.2C214,345.1,202.5,329.9,202.5,329.9z"/>
		<path class="st4" d="M263.1,324.1c-12-4.1-18.2-1.4-20-0.4c-1.8-1-7.9-3.6-20,0.4c-14.5,4.8-29.2,8.5-29.2,8.5h48.6h1.2h45.6h3
			C292.2,332.7,277.7,329.1,263.1,324.1z"/>
		<path class="st4" d="M265.7,342.3c-14.5,4.8-23.1,3.2-23.1,3.2s-8.5,1.8-23.1-3.2c-14.5-4.8-25.8-10.1-25.8-10.1s3.4,4.5,4.3,5.4
			c1.9,1.9-0.1,1,10.5,8.4c15.9,10.9,24.2,13.3,32.8,13.3c0.4,0,0.9,0,1.2,0c0.4,0,0.9,0,1.2,0c8.5,0,17-2.4,32.8-13.3
			c7.9-5.4,4.7-4.2,7.4-6.4c2.5-2.3,5.4-7.6,5.4-7.6S280.2,337.4,265.7,342.3z"/>
		<g>
			<path d="M237.2,317.6c0.2,0-0.1-0.1-0.6-0.3C236.8,317.5,236.9,317.6,237.2,317.6z"/>
			<path d="M223.8,309.1c0,0-10.9,2.4-13.3,1.2s-3.6,4.8-4.8,4.8c-1.2,0,1.2-3.6,1.2-3.6s-2.4,2.4-3.6,3.6c-1,1-9.8,9.8-12.2,12.2
				c3.6-3.6,17-8.5,26.8-10.9c7.9-2,16.6,0.1,18.9,0.9c-0.7-0.7-1.5-2.1-2.1-3.3c1.4,1.2,3.9,2.4,3.9,2.4s-1-2.6-1.8-4.7
				c1.5,2.5,4.2,3.5,4.2,3.5C245.6,306.7,223.8,309.1,223.8,309.1z"/>
			<path d="M282,315.2c-1.2-1.2-3.6-3.6-3.6-3.6s2.4,3.6,1.2,3.6c-1.2,0-2.4-6.1-4.8-4.8c-2.4,1.2-13.3-1.2-13.3-1.2
				s-21.9-2.4-17,6.1c0,0,2.6-0.9,4.2-3.5c-0.8,2-1.8,4.6-1.8,4.6s2.4-1.2,3.9-2.4c-0.7,1.1-1.4,2.6-2.1,3.3
				c2.2-0.9,10.9-2.9,18.9-0.9c9.7,2.4,23.1,7.3,26.8,10.9C297.7,330.9,283.1,316.4,282,315.2z"/>
			<path d="M248,317.6c0.2,0,0.3-0.1,0.6-0.3C248,317.5,247.7,317.6,248,317.6z"/>
		</g>
		<g>
			<g>
				<path class="st5" d="M344.3,118.5c-8.3-7.4-27.7-20.4-48.8-28.1c-14.3-5.3-29.5-7.9-43.1-8.9c-1-0.2-2-0.3-3.1-0.3
					c-2.5-0.1-5.2-0.2-8-0.1c-2.8,0-5.5,0-8,0.1c-1.1,0.1-2.1,0.2-3.2,0.3c-13.4,1-28.7,3.6-43.1,8.9c-21,7.7-40.4,20.7-48.8,28.1
					c-21.6,19.6-23.9,65.4-20.3,89.1c3.4,21.9,6.7,51.4,7.2,55.7l5.2-0.3c4-5.2-0.1-8.6,0-14.5c0.8-53,9.4-47,7.2-64.4
					c-2.4-19.4,18.4-49.9,18.4-49.9s36-11.2,53.4-7.7c23.5,4.8,32.2,6.5,32.2,6.5s0,0,0.1-0.1c0,0.1,0.1,0.1,0.1,0.1
					s8.7-1.7,32.2-6.5c17.4-3.6,53.4,7.6,53.4,7.6s20.8,30.5,18.4,49.9c-2.2,17.3,20.5,25.5,8.4,66.8c-5,16.7,4,11.3,3.6,19.5
					l0.3-6.9c0.4-4.2,3.9-33.8,7.2-55.7C368.5,183.9,366.3,138.1,344.3,118.5z"/>
			</g>
			<path class="st6" d="M180,128.1c-3.6,2.4-12,1.8-24.2,6.1c-16,5.5-34.5,10.5-29.2-15.9c4.3-27.9,62.4-62.1,68.4-65.5
				c5.9-3.4,30.2-5.9,34.9-3.6c10.9,6.1,13.3,7.3,13.3,7.3s8.7-0.6,13.3,0c9.4-3,20.4-7.6,21.9-2.4s13.8,3.2,16,4.4
				c2.1,1.3,11.8,5.7,12.2,8.7c0.3,2.9,12.2,6.2,15.5,11.2c3.3,5.1,11.6,17.2,8.3,21.6c-4,5.2,25.1,35.6,24.7,34.2
				c-5.4-14.4-107.8-8.4-116.6-6.6C211.8,133.1,180,128.1,180,128.1z"/>
			<path class="st5" d="M298.1,80.4c0.1-0.3,0.1-0.6,0.1-0.8C298.2,79,298.1,79.3,298.1,80.4z"/>
			<path class="st5" d="M339.2,102.6c-2.5-1-9.4-9.4-11.2-13.4l0,0c0.4,6.9-7.9,12.7-7.2,6.7c0.8-5.9-2.5-14-2.5-14
				c-4,24.1-25.5,20.6-23,14c1.9-4.8,2.5-12.7,2.8-15.5c-1,4.1-8.3,18.9-15,23c-7.2,4.5-15.9,8.7-9.4-6.2
				c6.5-14.8,11.1-29.3,11.1-29.3c-6.8,17.4-20.1,38.9-31.6,45.4c-11.5,6.5-5.4-8-5.4-8c-9.4,4.5-6.2,14.4-24.1,19.6
				c-17.9,5.2,0-18.5,0-18.5c-15.1,15.4-36.7,11.6-36.7,11.6C185.4,88.7,220.5,66,220.5,66c-9.1,5.4-23.8,12.1-40,33.4
				s-36.8-4.3-36.8-4.3l0,0c3.3,32.9,39.4,27.1,39.4,27.1s28.1,7,55.2,5.5c9.8-0.6,121.1,14.2,116.7,4.2
				C354.9,131.4,372,116,339.2,102.6z"/>
			<path class="st7" d="M207.9,94.1c0,0,25.7-31.1,42.8-38.3c-3.4,5.1-6.8,9.7-8.3,14.2c3.9-2.2,19.3-8.3,28.1-18.9
				c-4.5,12.7-15.9,22.2-16.8,28.7c2-3.7,14.6-11.2,20.1-17.2c-7.6,14.1-37.8,40.2-37.8,40.2s12.1-10,11.9-18.7
				c-4.4,5.5-11.6,12.9-25.9,18.7C236.3,88.5,234.7,79,234.7,79S219.4,89,207.9,94.1z"/>
			<path class="st7" d="M289.6,65c0,0-1.7,11.2-3.5,16.4c-1.9,5.2,2.3,0.4,3.5-1.4c1.2-1.9,1.7,0.7,1.2,1.3
				c-0.4,0.8,1.2,0.9,2.1-1.9c1-2.6,2.4,0,2.4,0s2.5-1.3,3.3-3.5c0.7-2.2,2,6.2,1.4,7.8c-0.6,1.8,2.9-3.3,2.9-3.3s1.2,5.4,0,10.8
				c-1.2,5.4,7.2,3.4,8-7.3c1-10.7-1.4-12.3-2.9-12.4c-1.3-0.1-1.9,3.7-1.9,3.7s-1.1-6.4-4-7.5c-2.9-1.1-5.4,1.2-5.3,1.9
				C297.3,70.3,289.6,55.4,289.6,65z"/>
			<path class="st7" d="M155.1,78.6c0,0,3.1-12.4,24.4-18.4c21.5-5.8,22.6-4.7,32.5-9.7c9.9-5-12.2,10.4-17.7,11.5
				c-5.5,1.1,11.9-1.4,20.3-2.9c8.4-1.4-14.8,8.3-27.2,19.6c-12.9,11.7-10.8,15-15.6,20.7c-1.5-7.6-0.7-15.4,0.7-18.1
				c1.2-2.8-5.5-0.2-10.2,5.6c-4.7,5.7,1.4-6.2,1.4-8C163.6,76.8,154.9,82.7,155.1,78.6z"/>
			<path class="st8" d="M172.4,81.2c1.2-2.8-5.5-0.2-10.2,5.6c-4.7,5.7-1.1-5,1.4-8"/>
		</g>
		<g>
			<path d="M232.6,365.9c0.2-0.1,0.3-0.1,0.6-0.2C232.6,362.9,233.2,365.2,232.6,365.9z"/>
			<path d="M232.3,366.2c0.2,0,0.3-0.1,0.3-0.2C232.2,366.1,232,366.2,232.3,366.2z"/>
			<path d="M238.4,365c0.6,0.6,1.3,1.2,2.1,1.9C239.4,365.6,237.7,364.3,238.4,365z"/>
			<path d="M252.5,365.9c0.1,0.1,0.2,0.2,0.3,0.2C253.1,366.2,252.9,366.1,252.5,365.9z"/>
			<path d="M251.9,365.8c0.2,0.1,0.4,0.1,0.6,0.2C251.9,365.2,252.5,362.9,251.9,365.8z"/>
			<path d="M244.5,366.8c0.8-0.7,1.7-1.3,2.2-1.9C247.4,364.3,245.7,365.6,244.5,366.8z"/>
			<path d="M244.3,368.6c-1.8,0.7-1-0.6,0.3-1.8c-1,0.8-1.9,1.4-2,1.5c-0.1-0.1-1-0.8-2-1.5c1.2,1.2,2.1,2.4,0.3,1.8
				c-3.6-1.2-3.6-3.6-3.6-3.6s-2.4,0.6-4,0.9c0.1,0.4,0.2,0.9,0.3,1.5c1.2,6.1,1.2,6.1,1.2,6.1s-1.2-6.1,0-4.8
				c1.2,1.2,1.2,7.3,1.2,7.3l1.2-2.4l3.6,4.8v3.6l1.2-2.4l0.4,1.8v0.7l0.1-0.3l0.1,0.3v-0.7l0.4-1.8l1.2,2.4v-3.6l3.6-4.8l1.2,2.4
				c0,0,0-6.1,1.2-7.3c1.2-1.2,0,4.8,0,4.8s0,0,1.2-6.1c0.1-0.7,0.2-1.2,0.3-1.5c-1.4-0.3-4-0.9-4-0.9S248,367.4,244.3,368.6z"/>
		</g>
		<g>
			<path d="M237.2,305.5c0,0-3.6-9.7-13.3-8.5c-9.7,1.2-9.7,0-9.7,0S228.7,296.9,237.2,305.5z"/>
			<path d="M248,305.5c0,0,3.6-9.6,13.3-8.4c9.7,1.2,9.7,0,9.7,0S256.4,297,248,305.5z"/>
		</g>
		<path d="M355.5,221.7c0-2.4-3.6-10.9-3.6-10.9h-3.6c0,0,0-1.2-17-9.7c-17-8.5-69.3,9.7-69.3,9.7c-3.6,1.2-7.3,13.3-7.3,13.3
			l-15,0.7v0.2l-10.5,0.2c0,0-3.6-12.2-7.3-13.3c0,0-52.2-18.2-69.3-9.7c-17.1,8.4-17.1,9.5-17.1,9.5h-3.6c0,0-3.6,8.5-3.6,10.9
			c0,2.4-4.5,23.9-4.5,23.9l4.4,13.2c0,0,2.6-33.5,3.9-34.7s4.8-2.4,6.1,3.6s3.6,9.7,3.6,9.7s8.5,35.2,20.6,41.3
			c12.2,6.1,15.9,6.1,21.9,6.1s17-4.8,23.1-9.7c6.1-4.8,10.9-10.9,14.5-18.2c3.6-7.3,7.3-9.7,8.5-17c1.2-7.3,0-10.9,0-10.9l8.8-0.9
			v0.1l10.6-0.7c0,0,2.3,4.1,3.6,11.3c1.2,7.3,4.8,9.7,8.5,17c3.6,7.3,8.5,13.3,14.5,18.2c6.1,4.8,17,9.7,23.1,9.7
			c6.1,0,9.7,0,21.9-6.1s20.6-41.3,20.6-41.3s2.4-3.6,3.6-9.7c1.2-6.1,4.8-4.8,6.1-3.6c1.2,1.2,5.6,35.8,5.6,35.8l2.4-19.5
			C359.9,240.5,355.5,224.1,355.5,221.7z M220.8,254.2c-3.6,10.9-13.3,18.2-21.9,24.2c-8.5,6.1-17,3.6-29.2,0
			c-12.2-3.6-19.5-21.9-21.9-25.5c-2.4-3.6-4.8-23.1-3.6-30.4s6.1-12.2,40.1-15.9s41.3,25.5,41.3,25.5S224.4,243.3,220.8,254.2z
			 M336.1,252.1c-2.4,3.6-9.7,21.9-21.9,25.5c-12.2,3.6-20.6,6.1-29.2,0c-8.5-6.1-18.2-13.3-21.9-24.2c-3.6-10.9-4.8-21.9-4.8-21.9
			s7.3-29.2,41.3-25.5c34,3.6,38.9,8.5,40.1,15.9C341,229,338.6,248.5,336.1,252.1z"/>
		<g>
			<g>
				<g>
					<path class="st3" d="M218.3,230.6c-0.3-0.3-0.6-0.6-1-0.6c-4.6-6.5-9.7-9.2-17.1-9.2c-6.2,0-18.1,0.6-22.6,6.2
						c0,0,7.2,5.6,18.1,5.6s19-1.4,19-1.4l5.3,1.1L218.3,230.6z"/>
				</g>
				<g id="XMLID_21_">
					
						<linearGradient id="SVGID_9_" gradientUnits="userSpaceOnUse" x1="196.0364" y1="941.5426" x2="196.0364" y2="935.0138" gradientTransform="matrix(1 0 0 1 0 -709.7775)">
						<stop  offset="0" style="stop-color:#AF5C37"/>
						<stop  offset="1" style="stop-color:#843F29"/>
					</linearGradient>
					<path class="st18" d="M204.9,226.5c0.1-2.1-0.6-4-1.8-5.5c-0.9-0.1-1.9-0.2-2.9-0.2c-3,0-7.5,0.1-11.8,1
						c-0.8,1.2-1.2,2.6-1.3,4.2c-0.1,2.2,0.7,4.3,2,5.8c2,0.4,4.2,0.7,6.6,0.7c2.3,0,4.5-0.1,6.6-0.2
						C203.8,230.8,204.8,228.9,204.9,226.5z"/>
					
						<linearGradient id="SVGID_10_" gradientUnits="userSpaceOnUse" x1="196.0382" y1="941.5426" x2="196.0382" y2="935.0138" gradientTransform="matrix(1 0 0 1 0 -709.7775)">
						<stop  offset="0" style="stop-color:#C1653D"/>
						<stop  offset="1" style="stop-color:#9F4D32"/>
					</linearGradient>
					<path class="st19" d="M203.5,226.4c0.1-1.9-0.6-3.6-1.7-5c-0.4-0.2-1-0.4-1.4-0.7c-2.6,0-6.4,0.1-10,0.7
						c-1.1,1.2-1.8,2.8-1.8,4.5c-0.1,2.5,1.1,4.8,3,6.3c1.3,0.2,2.8,0.3,4.2,0.3c1.5,0,3,0,4.4-0.1C202,231.2,203.4,229,203.5,226.4
						z"/>
					<path id="XMLID_24_" d="M201.2,225c0.8,4-2.9,7.4-6.8,6.3c-1.8-0.6-3.3-2.1-3.6-4c-0.8-4,2.8-7.3,6.7-6.2
						C199.4,221.6,200.8,223.2,201.2,225z"/>
					<path id="XMLID_23_" class="st3" d="M198.8,223.5c-0.1,1.1-1.2,1.1-2.8,1.1c-1.5-0.1-2.6-0.1-2.6-1.2c0.1-1.1,1.3-2,2.8-2
						C197.6,221.4,198.8,222.4,198.8,223.5z"/>
					<path id="XMLID_22_" class="st3" d="M196.5,229.9c0,0.3-0.3,0.7-0.7,0.7s-0.7-0.3-0.7-0.7c0-0.3,0.3-0.7,0.7-0.7
						C196.2,229.2,196.5,229.5,196.5,229.9z"/>
				</g>
				<path d="M177.8,227c5.1-4.5,13.1-4.8,19.4-5.2c3.2-0.2,6.4-0.8,9.5,0c3.2,0.8,9.5,4.4,10,8.4c0.1,0.3,0.4,0.7,0.8,0.7
					s0.7,0,1,0.1c0.2,0.1,0.4-0.2,0.4-0.4c-0.6-1.4-1.8-1.3-2.5-2.5c-1.3-1.8-3-3.2-4.7-4.4c-3.3-2.3-7.8-3.3-11.7-3.6
					c-7.2-0.6-17.2,0.3-22,6.9C177.5,227,177.6,227.1,177.8,227L177.8,227z"/>
			</g>
			<g>
				<g>
					<path class="st3" d="M273.5,230.3c0.2-0.3,0.6-0.6,1-0.6c4.3-6.5,9-9.2,16.1-9.2c5.7,0,17,0.6,21.4,6.2c0,0-6.7,5.6-17.1,5.6
						s-17.9-1.4-17.9-1.4l-5.1,1.1L273.5,230.3z"/>
				</g>
				<g id="XMLID_9_">
					
						<linearGradient id="SVGID_11_" gradientUnits="userSpaceOnUse" x1="291.8308" y1="941.5443" x2="291.8308" y2="935.0132" gradientTransform="matrix(1 0 0 1 0 -709.7775)">
						<stop  offset="0" style="stop-color:#AF5C37"/>
						<stop  offset="1" style="stop-color:#843F29"/>
					</linearGradient>
					<path class="st20" d="M298.3,232.1c1.2-1.4,2.1-3.4,2.1-5.5c0.1-2.1-0.6-4-1.7-5.5c-3.1-0.4-6.1-0.6-8.3-0.6
						c-2.1,0-4,0.3-5.6,0.8c-1,1.3-1.5,3-1.5,4.7c-0.1,2.2,0.7,4.3,1.9,5.8c2.8,0.2,5.9,0.4,9.7,0.4
						C296.1,232.3,297.2,232.2,298.3,232.1z"/>
					
						<linearGradient id="SVGID_12_" gradientUnits="userSpaceOnUse" x1="291.8301" y1="941.5443" x2="291.8301" y2="935.0132" gradientTransform="matrix(1 0 0 1 0 -709.7775)">
						<stop  offset="0" style="stop-color:#C1653D"/>
						<stop  offset="1" style="stop-color:#9F4D32"/>
					</linearGradient>
					<path class="st21" d="M297,231.5c1.3-1.3,2.2-3.2,2.2-5.2c0.1-2.2-0.9-4.3-2.3-5.7c-2.3-0.2-4.6-0.3-6.4-0.3
						c-1.2,0-2.4,0.1-3.5,0.3c-1.4,1.3-2.3,3.2-2.4,5.3c-0.1,2.3,0.9,4.5,2.5,5.9c2.4,0.2,5.2,0.3,8.1,0.3
						C295.7,232.1,296.5,231.8,297,231.5z"/>
					<path id="XMLID_12_" d="M297.1,226.4c-0.1,2.9-2.5,5.2-5.3,5.2c-2.9-0.1-5.1-2.5-5-5.4c0.1-2.9,2.4-5.2,5.3-5.1
						C295,221,297.2,223.5,297.1,226.4z"/>
					<path id="XMLID_11_" class="st3" d="M294.6,223.5c-0.1,1.1-1.2,1.1-2.6,1.1c-1.4-0.1-2.5-0.1-2.5-1.2c0.1-1.1,1.2-2,2.6-2
						S294.6,222.4,294.6,223.5z"/>
					<path id="XMLID_10_" class="st3" d="M292.3,229.9c0,0.3-0.3,0.7-0.7,0.7c-0.3,0-0.7-0.3-0.7-0.7c0-0.3,0.3-0.7,0.7-0.7
						C292.1,229.2,292.3,229.5,292.3,229.9z"/>
				</g>
				<path d="M311.8,226.7c-4.7-4.5-12.4-4.8-18.2-5.2c-3-0.2-5.9-0.8-8.9,0c-3,0.8-8.8,4.4-9.5,8.4c-0.1,0.3-0.4,0.7-0.8,0.7
					c-0.3,0-0.6,0-0.9,0.1c-0.2,0.1-0.4-0.2-0.3-0.4c0.4-1.4,1.7-1.3,2.4-2.5c1.2-1.8,2.9-3.2,4.5-4.4c3.2-2.3,7.4-3.3,11-3.6
					c6.7-0.6,16.2,0.3,20.7,6.9C312,226.7,311.9,226.8,311.8,226.7L311.8,226.7z"/>
			</g>
		</g>
		<path class="st13" d="M358.4,139.8L125,137.6c0,0-12.1,36.3-8.8,49.5c3.2,12.8,133.2-36.3,133.2-36.3s73.8,29.7,116.7,28.6
			C366.1,179.4,365,145.3,358.4,139.8z"/>
	</g>
	<path id="bright_2_" class="st13" d="M253.6,148l151-76.4c2.9-1.4,1.2-5.7-1.9-4.8C360.5,77.7,269.8,105.6,253.6,148z"/>
	<path id="bleft_2_" class="st13" d="M257.2,140.7l-125.5,99.1c-15,5.9-11.1-5.1-7.8-8.5C170.9,182,249.5,104.7,257.2,140.7z"/>
</g>
</svg>
