<?xml version="1.0" standalone="no"?>
<!DOCTYPE svg PUBLIC "-//W3C//DTD SVG 20010904//EN"
 "http://www.w3.org/TR/2001/REC-SVG-20010904/DTD/svg10.dtd">
<svg version="1.0" xmlns="http://www.w3.org/2000/svg"
 width="767.000000pt" height="767.000000pt" viewBox="0 0 767.000000 767.000000"
 preserveAspectRatio="xMidYMid meet">
<metadata>
Created by potrace 1.14, written by Peter Selinger 2001-2017
</metadata>
<g transform="translate(0.000000,767.000000) scale(0.100000,-0.100000)"
fill="#000000" stroke="none">
<path d="M3580 7451 c0 -4 -19 -7 -43 -7 -70 -2 -164 -11 -173 -16 -5 -3 -22
-6 -39 -6 -16 -1 -41 -4 -55 -7 -14 -4 -45 -9 -70 -11 -25 -3 -50 -10 -56 -15
-6 -5 -13 -7 -15 -4 -3 2 -25 -1 -49 -6 -25 -6 -52 -12 -60 -14 -8 -2 -35 -8
-60 -15 -25 -7 -54 -14 -65 -17 -24 -5 -35 -8 -55 -15 -8 -3 -35 -11 -60 -19
-25 -7 -51 -17 -57 -22 -7 -5 -13 -7 -13 -3 0 3 -16 0 -35 -8 -19 -8 -35 -13
-35 -10 0 2 -11 -3 -24 -12 -14 -8 -26 -15 -28 -14 -2 1 -16 -4 -33 -10 -16
-7 -34 -13 -40 -14 -17 -5 -46 -17 -144 -63 -52 -23 -100 -43 -107 -43 -8 0
-14 -4 -14 -8 0 -5 -19 -16 -42 -27 -24 -10 -55 -26 -69 -36 -14 -10 -28 -16
-31 -13 -3 2 -11 -2 -18 -11 -7 -8 -19 -15 -26 -15 -8 0 -14 -4 -14 -10 0 -5
-4 -10 -9 -10 -5 0 -28 -11 -52 -25 -77 -45 -84 -50 -123 -82 -8 -7 -19 -13
-24 -13 -5 0 -21 -11 -36 -25 -14 -13 -29 -25 -31 -25 -9 0 -120 -82 -132 -98
-7 -9 -13 -13 -13 -9 0 4 -12 -4 -27 -17 -155 -133 -212 -185 -298 -271 -55
-55 -122 -127 -150 -159 -27 -32 -60 -69 -73 -82 -12 -13 -22 -28 -22 -34 0
-5 -3 -10 -7 -10 -5 0 -24 -23 -43 -50 -19 -27 -38 -50 -42 -50 -5 0 -8 -5 -8
-11 0 -6 -6 -17 -14 -24 -12 -12 -110 -159 -171 -255 -61 -96 -195 -356 -195
-377 0 -7 -5 -13 -12 -13 -6 0 -9 -3 -6 -6 4 -3 -9 -39 -28 -80 -18 -41 -31
-74 -28 -74 4 0 2 -6 -3 -12 -12 -15 -48 -123 -42 -124 2 0 -1 -7 -7 -15 -16
-19 -65 -180 -58 -191 3 -4 0 -8 -6 -8 -7 0 -10 -6 -7 -14 3 -8 3 -17 -1 -21
-4 -4 -8 -11 -8 -16 -1 -5 -2 -10 -4 -11 -1 -2 -3 -10 -5 -18 -1 -8 -10 -49
-19 -90 -17 -78 -25 -121 -31 -155 -2 -11 -6 -33 -9 -50 -3 -16 -9 -52 -12
-80 -3 -27 -8 -61 -10 -75 -5 -25 -7 -48 -20 -230 -8 -119 -11 -360 -4 -360 3
0 5 -21 6 -47 0 -53 12 -218 15 -218 1 0 3 -9 4 -20 5 -42 14 -104 19 -127 3
-12 8 -39 11 -58 4 -19 8 -42 9 -50 1 -8 6 -28 9 -45 4 -16 10 -40 12 -52 10
-48 14 -65 20 -86 18 -69 28 -104 33 -117 7 -19 7 -19 16 -60 5 -19 13 -46 19
-60 5 -14 12 -34 14 -45 2 -11 8 -24 13 -29 4 -4 6 -15 3 -22 -3 -8 0 -14 6
-14 6 0 10 -3 9 -7 0 -5 2 -17 6 -28 63 -164 81 -205 89 -205 6 0 7 -3 4 -6
-3 -4 -1 -16 5 -28 7 -11 13 -23 13 -26 2 -14 81 -165 87 -168 4 -2 8 -11 8
-21 0 -9 9 -27 19 -38 11 -12 18 -23 15 -26 -2 -2 2 -10 11 -17 8 -7 15 -17
15 -22 0 -12 102 -172 112 -176 5 -2 8 -8 8 -13 0 -10 35 -62 57 -87 7 -7 20
-26 30 -42 9 -17 21 -30 25 -30 4 0 8 -4 8 -10 0 -5 8 -18 18 -29 9 -10 28
-33 42 -51 14 -19 30 -38 35 -45 6 -6 39 -44 75 -85 88 -101 360 -368 360
-354 0 2 12 -8 27 -22 14 -13 40 -35 56 -47 16 -12 40 -32 54 -44 14 -12 34
-25 44 -28 11 -4 19 -10 19 -15 0 -5 12 -16 28 -24 15 -8 37 -24 50 -36 12
-11 22 -17 22 -13 0 4 4 3 8 -3 9 -15 223 -148 241 -151 8 -1 17 -6 20 -12 5
-8 225 -123 241 -126 3 -1 36 -16 74 -33 38 -18 75 -32 82 -32 8 0 14 -5 14
-10 0 -6 3 -9 8 -9 4 1 10 0 15 -1 4 -1 10 -3 15 -5 4 -1 14 -5 22 -8 54 -24
180 -64 185 -59 3 3 5 0 5 -7 0 -7 5 -9 10 -6 6 4 16 2 23 -3 7 -6 24 -13 37
-15 14 -2 32 -7 40 -10 14 -6 112 -30 170 -43 14 -3 41 -9 60 -14 19 -5 53
-11 74 -15 21 -3 48 -8 60 -11 12 -3 35 -7 51 -9 17 -2 30 -4 30 -5 0 -1 18
-3 40 -5 22 -1 40 -4 40 -5 0 -1 20 -3 45 -5 25 -1 45 -4 45 -5 0 -13 516 -18
655 -6 127 11 155 14 155 16 0 1 20 3 45 5 25 2 45 4 45 5 0 1 11 3 25 6 31 5
75 13 120 21 19 3 45 6 58 7 12 1 22 4 22 7 0 3 6 6 13 7 6 0 23 3 37 7 14 3
36 8 50 11 14 3 34 8 45 11 26 9 34 11 70 18 16 3 34 10 40 14 5 5 18 7 28 6
9 -2 17 1 17 6 0 5 7 9 16 9 24 0 118 33 126 45 4 6 8 7 8 3 0 -7 65 15 135
46 17 7 51 21 78 31 26 10 47 21 47 25 0 4 6 7 13 7 17 0 272 127 287 143 3 3
16 11 30 18 14 6 34 18 44 24 11 7 59 38 107 69 48 31 93 61 100 67 8 7 53 40
100 74 95 69 161 123 221 181 21 20 40 37 42 37 8 0 182 177 256 259 41 46 81
90 88 97 7 8 11 14 8 14 -3 0 2 8 12 18 9 10 28 32 42 50 14 18 33 43 43 55
10 12 26 34 35 50 9 15 20 27 24 27 4 0 8 6 8 13 0 8 9 22 20 32 11 10 20 24
20 32 0 7 4 13 8 13 5 0 16 16 25 35 9 19 21 35 27 35 5 0 9 3 8 8 -1 4 13 33
32 65 67 113 200 366 200 381 0 3 11 29 23 58 37 83 52 122 49 131 -1 4 3 7 9
7 5 0 8 4 5 8 -3 5 1 20 9 35 7 14 11 28 7 31 -3 3 0 6 6 6 6 0 9 7 6 15 -4 8
-1 15 7 15 7 0 10 3 7 6 -4 3 0 20 7 37 7 18 13 34 12 37 0 3 7 28 16 55 9 28
18 59 20 70 1 11 6 26 10 33 5 6 6 12 3 12 -3 0 -1 11 4 26 11 27 22 80 22
104 1 8 4 20 8 25 4 6 11 28 15 50 5 22 9 45 11 50 15 66 33 179 29 185 -3 5
-1 11 4 15 6 3 8 12 4 20 -3 8 -1 15 3 15 5 0 9 35 9 78 0 42 2 81 4 87 6 13
4 206 -3 212 -2 3 -1 15 4 28 5 13 7 25 4 28 -3 3 -7 63 -10 133 -5 143 -12
220 -29 339 -3 22 -8 58 -10 80 -6 43 -12 80 -15 80 -1 0 -4 14 -6 30 -8 46
-12 70 -14 70 -1 0 -3 9 -5 20 -3 22 -10 56 -21 95 -3 14 -7 33 -7 43 -1 9 -6
17 -11 17 -5 0 -7 3 -3 6 3 3 2 18 -3 32 -62 196 -82 256 -92 279 -6 15 -12
33 -14 38 -1 6 -8 24 -15 40 -7 17 -12 33 -11 38 1 4 -3 7 -10 7 -6 0 -8 3 -5
6 3 4 1 16 -5 28 -7 11 -13 23 -13 26 -1 3 -9 22 -18 44 -9 21 -17 42 -17 47
0 5 -4 9 -10 9 -5 0 -10 9 -10 20 0 11 -4 20 -10 20 -5 0 -9 3 -8 8 1 4 -5 21
-15 38 -9 17 -13 34 -10 38 4 3 1 6 -5 6 -5 0 -21 23 -33 50 -12 28 -26 50
-31 50 -4 0 -8 6 -8 14 0 8 -18 42 -40 75 -22 33 -40 65 -40 71 0 5 -4 10 -10
10 -5 0 -10 6 -10 14 0 7 -7 19 -15 26 -9 7 -23 28 -31 46 -9 19 -20 34 -25
34 -5 0 -9 7 -9 15 0 8 -4 15 -8 15 -4 0 -16 15 -27 33 -10 17 -21 34 -25 37
-3 3 -21 25 -40 50 -101 131 -186 225 -327 364 -98 98 -141 137 -213 196 -10
8 -27 22 -38 31 -64 54 -153 119 -162 119 -5 0 -10 4 -10 10 0 5 -15 17 -32
26 -18 9 -35 20 -38 24 -3 3 -20 15 -37 25 -18 11 -33 23 -33 27 0 4 -6 8 -14
8 -7 0 -19 7 -26 15 -7 8 -16 12 -21 9 -5 -3 -9 -1 -9 3 0 5 -21 20 -47 33
-27 14 -50 28 -53 32 -6 7 -244 127 -315 158 -27 12 -70 31 -95 42 -24 11 -49
21 -55 22 -5 1 -16 5 -22 9 -7 5 -13 5 -13 0 0 -4 -4 -3 -8 2 -6 9 -82 40
-122 50 -8 2 -16 4 -17 5 -3 3 -8 4 -48 14 -16 4 -39 11 -50 16 -29 12 -186
52 -210 54 -11 0 -22 4 -25 7 -3 4 -21 8 -40 10 -19 2 -39 5 -45 8 -5 3 -19 6
-30 7 -11 0 -36 5 -55 9 -19 5 -45 9 -57 9 -12 1 -24 4 -28 8 -4 4 -12 4 -19
2 -7 -3 -25 0 -39 5 -19 7 -27 7 -27 0 0 -6 -6 -7 -12 -2 -17 10 -29 12 -113
17 -38 3 -72 6 -75 7 -12 5 -510 5 -510 0z"/>
</g>
</svg>
